<mxfile host="app.diagrams.net" agent="Mozilla/5.0 (Windows NT 10.0; Win64; x64) AppleWebKit/537.36 (KHTML, like Gecko) Chrome/131.0.0.0 Safari/537.36" version="26.0.6">
  <diagram name="Page-1" id="inT7ghY8Yn8x-mLsvbXC">
    <mxGraphModel dx="1434" dy="738" grid="1" gridSize="10" guides="1" tooltips="1" connect="1" arrows="1" fold="1" page="1" pageScale="1" pageWidth="850" pageHeight="1100" math="0" shadow="0">
      <root>
        <mxCell id="0" />
        <mxCell id="1" parent="0" />
        <mxCell id="PWzsAuKqugmK2Xd88p3H-1" value="" style="whiteSpace=wrap;html=1;aspect=fixed;align=left;" vertex="1" parent="1">
          <mxGeometry x="170" y="100" width="650" height="650" as="geometry" />
        </mxCell>
        <mxCell id="PWzsAuKqugmK2Xd88p3H-2" value="Home" style="text;html=1;align=center;verticalAlign=middle;whiteSpace=wrap;rounded=0;" vertex="1" parent="1">
          <mxGeometry x="150" y="70" width="60" height="30" as="geometry" />
        </mxCell>
        <mxCell id="PWzsAuKqugmK2Xd88p3H-4" value="" style="rounded=1;whiteSpace=wrap;html=1;" vertex="1" parent="1">
          <mxGeometry x="170" y="110" width="650" height="60" as="geometry" />
        </mxCell>
        <mxCell id="PWzsAuKqugmK2Xd88p3H-5" value="logo" style="html=1;whiteSpace=wrap;strokeColor=none;fillColor=#0079D6;labelPosition=center;verticalLabelPosition=middle;verticalAlign=top;align=center;fontSize=12;outlineConnect=0;spacingTop=-6;fontColor=#FFFFFF;sketch=0;shape=mxgraph.sitemap.photo;" vertex="1" parent="1">
          <mxGeometry x="180" y="115" width="80" height="50" as="geometry" />
        </mxCell>
        <mxCell id="PWzsAuKqugmK2Xd88p3H-8" value="New mowers" style="text;html=1;align=center;verticalAlign=middle;whiteSpace=wrap;rounded=0;" vertex="1" parent="1">
          <mxGeometry x="550" y="125" width="60" height="30" as="geometry" />
        </mxCell>
        <mxCell id="PWzsAuKqugmK2Xd88p3H-9" value="used mowers" style="text;html=1;align=center;verticalAlign=middle;whiteSpace=wrap;rounded=0;" vertex="1" parent="1">
          <mxGeometry x="620" y="125" width="60" height="30" as="geometry" />
        </mxCell>
        <mxCell id="PWzsAuKqugmK2Xd88p3H-10" value="new mower deals" style="text;html=1;align=center;verticalAlign=middle;whiteSpace=wrap;rounded=0;" vertex="1" parent="1">
          <mxGeometry x="690" y="125" width="60" height="30" as="geometry" />
        </mxCell>
        <mxCell id="PWzsAuKqugmK2Xd88p3H-11" value="" style="html=1;verticalLabelPosition=bottom;align=center;labelBackgroundColor=#ffffff;verticalAlign=top;strokeWidth=2;strokeColor=#0080F0;shadow=0;dashed=0;shape=mxgraph.ios7.icons.most_viewed;pointerEvents=1" vertex="1" parent="1">
          <mxGeometry x="770" y="128.6" width="28.2" height="22.8" as="geometry" />
        </mxCell>
        <mxCell id="PWzsAuKqugmK2Xd88p3H-13" value="" style="verticalLabelPosition=bottom;shadow=0;dashed=0;align=center;html=1;verticalAlign=top;strokeWidth=1;shape=mxgraph.mockup.markup.line;strokeColor=#999999;direction=north;" vertex="1" parent="1">
          <mxGeometry x="600" y="120" width="20" height="40" as="geometry" />
        </mxCell>
        <mxCell id="PWzsAuKqugmK2Xd88p3H-14" value="" style="verticalLabelPosition=bottom;shadow=0;dashed=0;align=center;html=1;verticalAlign=top;strokeWidth=1;shape=mxgraph.mockup.markup.line;strokeColor=#999999;direction=north;" vertex="1" parent="1">
          <mxGeometry x="680" y="120" width="20" height="40" as="geometry" />
        </mxCell>
        <mxCell id="PWzsAuKqugmK2Xd88p3H-15" value="Navbar" style="text;html=1;align=center;verticalAlign=middle;whiteSpace=wrap;rounded=0;fontStyle=5" vertex="1" parent="1">
          <mxGeometry x="310" y="125" width="220" height="30" as="geometry" />
        </mxCell>
        <mxCell id="PWzsAuKqugmK2Xd88p3H-24" value="Featured Deals" style="text;html=1;align=center;verticalAlign=middle;whiteSpace=wrap;rounded=0;" vertex="1" parent="1">
          <mxGeometry x="397.5" y="390" width="195" height="30" as="geometry" />
        </mxCell>
        <mxCell id="PWzsAuKqugmK2Xd88p3H-25" value="deal 1" style="whiteSpace=wrap;html=1;aspect=fixed;" vertex="1" parent="1">
          <mxGeometry x="210" y="420" width="40" height="40" as="geometry" />
        </mxCell>
        <mxCell id="PWzsAuKqugmK2Xd88p3H-26" value="deal 2" style="whiteSpace=wrap;html=1;aspect=fixed;" vertex="1" parent="1">
          <mxGeometry x="310" y="420" width="40" height="40" as="geometry" />
        </mxCell>
        <mxCell id="PWzsAuKqugmK2Xd88p3H-30" value="Why [NameOfwebSite]" style="text;html=1;align=center;verticalAlign=middle;whiteSpace=wrap;rounded=0;" vertex="1" parent="1">
          <mxGeometry x="465" y="470" width="60" height="30" as="geometry" />
        </mxCell>
        <mxCell id="PWzsAuKqugmK2Xd88p3H-32" value="reason 2" style="whiteSpace=wrap;html=1;aspect=fixed;" vertex="1" parent="1">
          <mxGeometry x="472.5" y="507.5" width="45" height="45" as="geometry" />
        </mxCell>
        <mxCell id="PWzsAuKqugmK2Xd88p3H-34" value="deal 3" style="whiteSpace=wrap;html=1;aspect=fixed;" vertex="1" parent="1">
          <mxGeometry x="425" y="420" width="40" height="40" as="geometry" />
        </mxCell>
        <mxCell id="PWzsAuKqugmK2Xd88p3H-35" value="deal 4" style="whiteSpace=wrap;html=1;aspect=fixed;" vertex="1" parent="1">
          <mxGeometry x="530" y="420" width="40" height="40" as="geometry" />
        </mxCell>
        <mxCell id="PWzsAuKqugmK2Xd88p3H-36" value="deal 5" style="whiteSpace=wrap;html=1;aspect=fixed;" vertex="1" parent="1">
          <mxGeometry x="630" y="420" width="40" height="40" as="geometry" />
        </mxCell>
        <mxCell id="PWzsAuKqugmK2Xd88p3H-37" value="deal 6" style="whiteSpace=wrap;html=1;aspect=fixed;" vertex="1" parent="1">
          <mxGeometry x="730" y="420" width="40" height="40" as="geometry" />
        </mxCell>
        <mxCell id="PWzsAuKqugmK2Xd88p3H-38" value="reason 3" style="whiteSpace=wrap;html=1;aspect=fixed;" vertex="1" parent="1">
          <mxGeometry x="555" y="507.5" width="45" height="45" as="geometry" />
        </mxCell>
        <mxCell id="PWzsAuKqugmK2Xd88p3H-39" value="reason 1" style="whiteSpace=wrap;html=1;aspect=fixed;" vertex="1" parent="1">
          <mxGeometry x="390" y="507.5" width="45" height="45" as="geometry" />
        </mxCell>
        <mxCell id="PWzsAuKqugmK2Xd88p3H-40" value="recently added" style="text;html=1;align=center;verticalAlign=middle;whiteSpace=wrap;rounded=0;" vertex="1" parent="1">
          <mxGeometry x="465" y="570" width="60" height="30" as="geometry" />
        </mxCell>
        <mxCell id="PWzsAuKqugmK2Xd88p3H-41" value="1" style="whiteSpace=wrap;html=1;aspect=fixed;" vertex="1" parent="1">
          <mxGeometry x="210" y="600" width="40" height="40" as="geometry" />
        </mxCell>
        <mxCell id="PWzsAuKqugmK2Xd88p3H-43" value="2" style="whiteSpace=wrap;html=1;aspect=fixed;" vertex="1" parent="1">
          <mxGeometry x="290" y="600" width="40" height="40" as="geometry" />
        </mxCell>
        <mxCell id="PWzsAuKqugmK2Xd88p3H-44" value="6" style="whiteSpace=wrap;html=1;aspect=fixed;" vertex="1" parent="1">
          <mxGeometry x="660" y="600" width="40" height="40" as="geometry" />
        </mxCell>
        <mxCell id="PWzsAuKqugmK2Xd88p3H-45" value="5" style="whiteSpace=wrap;html=1;aspect=fixed;" vertex="1" parent="1">
          <mxGeometry x="570" y="600" width="40" height="40" as="geometry" />
        </mxCell>
        <mxCell id="PWzsAuKqugmK2Xd88p3H-46" value="3" style="whiteSpace=wrap;html=1;aspect=fixed;" vertex="1" parent="1">
          <mxGeometry x="380" y="600" width="40" height="40" as="geometry" />
        </mxCell>
        <mxCell id="PWzsAuKqugmK2Xd88p3H-47" value="4" style="whiteSpace=wrap;html=1;aspect=fixed;" vertex="1" parent="1">
          <mxGeometry x="477.5" y="600" width="40" height="40" as="geometry" />
        </mxCell>
        <mxCell id="PWzsAuKqugmK2Xd88p3H-48" value="7" style="whiteSpace=wrap;html=1;aspect=fixed;" vertex="1" parent="1">
          <mxGeometry x="750" y="600" width="40" height="40" as="geometry" />
        </mxCell>
        <mxCell id="PWzsAuKqugmK2Xd88p3H-49" value="Brands" style="text;html=1;align=center;verticalAlign=middle;whiteSpace=wrap;rounded=0;" vertex="1" parent="1">
          <mxGeometry x="420" y="650" width="160" height="30" as="geometry" />
        </mxCell>
        <mxCell id="PWzsAuKqugmK2Xd88p3H-50" value="brand 1" style="whiteSpace=wrap;html=1;aspect=fixed;" vertex="1" parent="1">
          <mxGeometry x="250" y="680" width="60" height="60" as="geometry" />
        </mxCell>
        <mxCell id="PWzsAuKqugmK2Xd88p3H-51" value="brand 2" style="whiteSpace=wrap;html=1;aspect=fixed;" vertex="1" parent="1">
          <mxGeometry x="360" y="680" width="60" height="60" as="geometry" />
        </mxCell>
        <mxCell id="PWzsAuKqugmK2Xd88p3H-52" value="brand 3" style="whiteSpace=wrap;html=1;aspect=fixed;" vertex="1" parent="1">
          <mxGeometry x="467.5" y="680" width="60" height="60" as="geometry" />
        </mxCell>
        <mxCell id="PWzsAuKqugmK2Xd88p3H-53" value="brand 4" style="whiteSpace=wrap;html=1;aspect=fixed;" vertex="1" parent="1">
          <mxGeometry x="570" y="680" width="60" height="60" as="geometry" />
        </mxCell>
        <mxCell id="PWzsAuKqugmK2Xd88p3H-54" value="brand 5" style="whiteSpace=wrap;html=1;aspect=fixed;" vertex="1" parent="1">
          <mxGeometry x="670" y="680" width="60" height="60" as="geometry" />
        </mxCell>
        <mxCell id="PWzsAuKqugmK2Xd88p3H-56" value="" style="sketch=0;outlineConnect=0;fontColor=#232F3E;gradientColor=none;fillColor=#ED7100;strokeColor=none;dashed=0;verticalLabelPosition=bottom;verticalAlign=top;align=center;html=1;fontSize=12;fontStyle=0;aspect=fixed;pointerEvents=1;shape=mxgraph.aws4.container_registry_image;" vertex="1" parent="1">
          <mxGeometry x="420" y="190" width="150" height="150" as="geometry" />
        </mxCell>
        <mxCell id="PWzsAuKqugmK2Xd88p3H-57" value="home image" style="text;html=1;align=center;verticalAlign=middle;whiteSpace=wrap;rounded=0;" vertex="1" parent="1">
          <mxGeometry x="360" y="190" width="60" height="30" as="geometry" />
        </mxCell>
        <mxCell id="PWzsAuKqugmK2Xd88p3H-58" value="Search dropdown" style="shape=rect;fillColor=#e0e0e0;strokeColor=none;fontStyle=0;align=left;" vertex="1" parent="1">
          <mxGeometry x="220" y="360" width="560" height="20" as="geometry" />
        </mxCell>
        <mxCell id="PWzsAuKqugmK2Xd88p3H-59" value="Search Dropdown" style="html=1;strokeWidth=1;shadow=0;dashed=0;shape=mxgraph.ios7ui.marginRect;rx=3;ry=3;rectMargin=5;strokeColor=none;align=left;" vertex="1" parent="PWzsAuKqugmK2Xd88p3H-58">
          <mxGeometry width="560" height="20" as="geometry" />
        </mxCell>
        <mxCell id="PWzsAuKqugmK2Xd88p3H-60" value="Search" style="shape=mxgraph.ios7.icons.looking_glass;strokeColor=#e0e0e0;fillColor=none;fontColor=#e0e0e0;labelPosition=right;verticalLabelPosition=middle;align=left;verticalAlign=middle;fontSize=6;fontStyle=0;spacingTop=2;sketch=0;html=1;" vertex="1" parent="PWzsAuKqugmK2Xd88p3H-58">
          <mxGeometry x="0.5" y="0.5" width="6" height="6" relative="1" as="geometry">
            <mxPoint x="-17" y="-3" as="offset" />
          </mxGeometry>
        </mxCell>
        <mxCell id="PWzsAuKqugmK2Xd88p3H-62" value="&lt;div style=&quot;text-align: center;&quot;&gt;&lt;span style=&quot;background-color: transparent; color: light-dark(rgb(0, 0, 0), rgb(255, 255, 255));&quot;&gt;Navbar:&lt;/span&gt;&lt;/div&gt;&lt;div&gt;&lt;ol&gt;&lt;li&gt;logo image&lt;/li&gt;&lt;li&gt;has images to different pages&lt;/li&gt;&lt;/ol&gt;&lt;/div&gt;" style="whiteSpace=wrap;html=1;aspect=fixed;align=left;" vertex="1" parent="1">
          <mxGeometry x="170" y="820" width="130" height="130" as="geometry" />
        </mxCell>
        <mxCell id="PWzsAuKqugmK2Xd88p3H-63" value="&lt;div style=&quot;text-align: center;&quot;&gt;&lt;span style=&quot;background-color: transparent; color: light-dark(rgb(0, 0, 0), rgb(255, 255, 255));&quot;&gt;body:&lt;/span&gt;&lt;/div&gt;&lt;div&gt;&lt;ol&gt;&lt;li&gt;home image&lt;/li&gt;&lt;li&gt;search which allows to search for specific mowers&lt;/li&gt;&lt;li&gt;featured deals, lawnmowers that have dropped in price&lt;/li&gt;&lt;li&gt;recently added will show the newest lawn mowers added within couple of days? week? month?&lt;/li&gt;&lt;li&gt;brands that are being sold&lt;/li&gt;&lt;/ol&gt;&lt;/div&gt;" style="whiteSpace=wrap;html=1;aspect=fixed;align=left;" vertex="1" parent="1">
          <mxGeometry x="310" y="820" width="250" height="250" as="geometry" />
        </mxCell>
        <mxCell id="PWzsAuKqugmK2Xd88p3H-64" value="&lt;b&gt;&lt;u&gt;Footer&lt;/u&gt;&lt;/b&gt;" style="rounded=0;whiteSpace=wrap;html=1;" vertex="1" parent="1">
          <mxGeometry x="170" y="750" width="650" height="60" as="geometry" />
        </mxCell>
        <mxCell id="PWzsAuKqugmK2Xd88p3H-66" value="Body" style="text;html=1;align=center;verticalAlign=middle;whiteSpace=wrap;rounded=0;fontStyle=5" vertex="1" parent="1">
          <mxGeometry x="180" y="180" width="60" height="30" as="geometry" />
        </mxCell>
        <mxCell id="PWzsAuKqugmK2Xd88p3H-67" value="&lt;div style=&quot;text-align: center;&quot;&gt;&lt;span style=&quot;background-color: transparent; color: light-dark(rgb(0, 0, 0), rgb(255, 255, 255));&quot;&gt;footer:&lt;/span&gt;&lt;/div&gt;&lt;div&gt;&lt;ol&gt;&lt;li&gt;will contain some contact icons for facebook or email&lt;/li&gt;&lt;li&gt;contains links to the other pages within the website&lt;/li&gt;&lt;li&gt;will show popular brands&lt;/li&gt;&lt;/ol&gt;&lt;/div&gt;" style="whiteSpace=wrap;html=1;aspect=fixed;align=left;" vertex="1" parent="1">
          <mxGeometry x="570" y="820" width="250" height="250" as="geometry" />
        </mxCell>
        <mxCell id="PWzsAuKqugmK2Xd88p3H-68" value="website to model after:&amp;nbsp;https://www.carsdirect.com/" style="text;html=1;align=center;verticalAlign=middle;whiteSpace=wrap;rounded=0;" vertex="1" parent="1">
          <mxGeometry x="300" y="50" width="360" height="30" as="geometry" />
        </mxCell>
      </root>
    </mxGraphModel>
  </diagram>
</mxfile>
